<?xml version="1.0" encoding="UTF-8"?>
<svg width="1600" height="900" viewBox="0 0 1600 900" xmlns="http://www.w3.org/2000/svg">
  <title>Hero abstract background</title>
  <desc>Layered gradient with soft blobs, dotted accents, and subtle waves for depth behind hero content.</desc>

  <!-- Background gradient -->
  <defs>
    <linearGradient id="bg" x1="0" y1="0" x2="1" y2="1">
      <stop offset="0%" stop-color="#F3F0FF"/>
      <stop offset="100%" stop-color="#E9E3FF"/>
    </linearGradient>

    <!-- Accent colors -->
    <linearGradient id="blobGrad1" x1="0" y1="0" x2="1" y2="1">
      <stop offset="0%" stop-color="#C4B5FD" stop-opacity="0.75"/>
      <stop offset="100%" stop-color="#A78BFA" stop-opacity="0.55"/>
    </linearGradient>

    <linearGradient id="blobGrad2" x1="1" y1="0" x2="0" y2="1">
      <stop offset="0%" stop-color="#DDD6FE" stop-opacity="0.70"/>
      <stop offset="100%" stop-color="#C7BFFF" stop-opacity="0.45"/>
    </linearGradient>
  </defs>

  <!-- Base -->
  <rect x="0" y="0" width="1600" height="900" fill="url(#bg)"/>

  <!-- Soft blobs -->
  <path d="M270,260 C220,180 220,360 330,440 C490,560 760,540 700,360 C660,240 470,240 390,220 C330,205 300,230 270,260 Z"
        fill="url(#blobGrad2)" opacity="0.75"/>
  <path d="M1220,250 C1350,210 1480,330 1450,460 C1420,600 1230,650 1110,570 C980,480 1030,300 1170,260 C1190,255 1205,253 1220,250 Z"
        fill="url(#blobGrad1)" opacity="0.65"/>

  <!-- Soft circular accents -->
  <circle cx="1320" cy="150" r="120" fill="#EDE9FE" opacity="0.55"/>
  <circle cx="1150" cy="770" r="90" fill="#EDE9FE" opacity="0.35"/>
  <circle cx="260" cy="150" r="70" fill="#F0EAFF" opacity="0.5"/>

  <!-- Dotted matrices -->
  <g fill="#B9B2FF" opacity="0.35">
    <!-- top-left dots -->
    <g transform="translate(120,120)">
      <circle cx="0" cy="0" r="3"/>
      <circle cx="24" cy="0" r="3"/>
      <circle cx="48" cy="0" r="3"/>
      <circle cx="72" cy="0" r="3"/>
      <circle cx="96" cy="0" r="3"/>

      <circle cx="0" cy="24" r="3"/>
      <circle cx="24" cy="24" r="3"/>
      <circle cx="48" cy="24" r="3"/>
      <circle cx="72" cy="24" r="3"/>
      <circle cx="96" cy="24" r="3"/>

      <circle cx="0" cy="48" r="3"/>
      <circle cx="24" cy="48" r="3"/>
      <circle cx="48" cy="48" r="3"/>
      <circle cx="72" cy="48" r="3"/>
      <circle cx="96" cy="48" r="3"/>

      <circle cx="0" cy="72" r="3"/>
      <circle cx="24" cy="72" r="3"/>
      <circle cx="48" cy="72" r="3"/>
      <circle cx="72" cy="72" r="3"/>
      <circle cx="96" cy="72" r="3"/>
    </g>

    <!-- lower-right dots -->
    <g transform="translate(1320,680)">
      <circle cx="0" cy="0" r="3"/>
      <circle cx="24" cy="0" r="3"/>
      <circle cx="48" cy="0" r="3"/>
      <circle cx="72" cy="0" r="3"/>
      <circle cx="96" cy="0" r="3"/>

      <circle cx="0" cy="24" r="3"/>
      <circle cx="24" cy="24" r="3"/>
      <circle cx="48" cy="24" r="3"/>
      <circle cx="72" cy="24" r="3"/>
      <circle cx="96" cy="24" r="3"/>

      <circle cx="0" cy="48" r="3"/>
      <circle cx="24" cy="48" r="3"/>
      <circle cx="48" cy="48" r="3"/>
      <circle cx="72" cy="48" r="3"/>
      <circle cx="96" cy="48" r="3"/>

      <circle cx="0" cy="72" r="3"/>
      <circle cx="24" cy="72" r="3"/>
      <circle cx="48" cy="72" r="3"/>
      <circle cx="72" cy="72" r="3"/>
      <circle cx="96" cy="72" r="3"/>
    </g>
  </g>

  <!-- Wavy lines -->
  <g fill="none" stroke="#FFFFFF" stroke-opacity="0.45" stroke-width="2">
    <path d="M80,720 C220,680 340,760 480,720 C620,680 740,760 880,720" />
    <path d="M1040,180 C1160,150 1280,210 1400,180 C1520,150 1580,200 1680,170" transform="translate(-80,10)"/>
  </g>

  <!-- Gentle center highlight -->
  <radialGradient id="spot" cx="30%" cy="45%" r="35%">
    <stop offset="0%" stop-color="#FFFFFF" stop-opacity="0.45"/>
    <stop offset="70%" stop-color="#FFFFFF" stop-opacity="0.0"/>
  </radialGradient>
  <rect x="0" y="0" width="1600" height="900" fill="url(#spot)"/>
</svg>
